name C:\Users\r0593348\3dpredictsim\Results\Batchsim_tmt_linear\Pog_s1_tmt_aCst_d02_k250_ig24_pas.mot
datacolumns 128
datarows 4
range 0.00000000 0.03352986
endheader
time	pelvis_tilt	pelvis_list	pelvis_rotation	pelvis_tx	pelvis_ty	pelvis_tz	hip_flexion_l	hip_adduction_l	hip_rotation_l	hip_flexion_r	hip_adduction_r	hip_rotation_r	knee_angle_l	knee_angle_r	ankle_angle_l	ankle_angle_r	subtalar_angle_l	subtalar_angle_r	tmt_angle_l	tmt_angle_r	mtp_angle_l	mtp_angle_r	lumbar_extension	lumbar_bending	lumbar_rotation	arm_flex_l	arm_add_l	arm_rot_l	arm_flex_r	arm_add_r	arm_rot_r	elbow_flex_l	elbow_flex_r	pro_sup_l	pro_sup_r	glut_med1_l/activation	glut_med2_l/activation	glut_med3_l/activation	glut_min1_l/activation	glut_min2_l/activation	glut_min3_l/activation	semimem_l/activation	semiten_l/activation	bifemlh_l/activation	bifemsh_l/activation	sar_l/activation	add_long_l/activation	add_brev_l/activation	add_mag1_l/activation	add_mag2_l/activation	add_mag3_l/activation	tfl_l/activation	pect_l/activation	grac_l/activation	glut_max1_l/activation	glut_max2_l/activation	glut_max3_l/activation	iliacus_l/activation	psoas_l/activation	quad_fem_l/activation	gem_l/activation	peri_l/activation	rect_fem_l/activation	vas_med_l/activation	vas_int_l/activation	vas_lat_l/activation	med_gas_l/activation	lat_gas_l/activation	soleus_l/activation	tib_post_l/activation	flex_dig_l/activation	flex_hal_l/activation	tib_ant_l/activation	per_brev_l/activation	per_long_l/activation	per_tert_l/activation	ext_dig_l/activation	ext_hal_l/activation	ercspn_l/activation	intobl_l/activation	extobl_l/activation	glut_med1_r/activation	glut_med2_r/activation	glut_med3_r/activation	glut_min1_r/activation	glut_min2_r/activation	glut_min3_r/activation	semimem_r/activation	semiten_r/activation	bifemlh_r/activation	bifemsh_r/activation	sar_r/activation	add_long_r/activation	add_brev_r/activation	add_mag1_r/activation	add_mag2_r/activation	add_mag3_r/activation	tfl_r/activation	pect_r/activation	grac_r/activation	glut_max1_r/activation	glut_max2_r/activation	glut_max3_r/activation	iliacus_r/activation	psoas_r/activation	quad_fem_r/activation	gem_r/activation	peri_r/activation	rect_fem_r/activation	vas_med_r/activation	vas_int_r/activation	vas_lat_r/activation	med_gas_r/activation	lat_gas_r/activation	soleus_r/activation	tib_post_r/activation	flex_dig_r/activation	flex_hal_r/activation	tib_ant_r/activation	per_brev_r/activation	per_long_r/activation	per_tert_r/activation	ext_dig_r/activation	ext_hal_r/activation	ercspn_r/activation	intobl_r/activation	extobl_r/activation	
          0.00000000	         -2.92249589	         -2.37601932	          6.55531674	          0.00000000	          0.85458016	         -0.00416290	        -18.43887015	         -2.04744939	          8.20447065	         32.16453384	          3.09784910	         -3.33874634	         -8.65652519	        -15.19158864	         -0.67488571	          6.95747632	         11.68201833	         -2.95866205	          3.92922780	          0.13397587	         20.76681061	         -0.09154225	         -2.24809234	          1.04898032	         -2.00375545	          7.40860683	        -13.46910202	         17.17735823	        -10.41711303	        -13.56870082	          6.11725561	         41.71156029	         15.14401247	         86.51662706	         86.51662706	          0.23417477	          0.09137215	          0.05318494	          0.27766973	          0.19477043	          0.09901463	          0.05000198	          0.05000018	          0.05000013	          0.06791709	          0.10721240	          0.11186853	          0.18722250	          0.05001138	          0.05000476	          0.05000062	          0.31119349	          0.05936252	          0.05000202	          0.05000080	          0.05000056	          0.05000058	          0.38111241	          0.59497436	          0.05000013	          0.05000055	          0.05006149	          0.22693604	          0.05167475	          0.05108698	          0.16529858	          0.28369987	          0.38434953	          0.27212690	          0.24412406	          0.27703512	          0.34359445	          0.05000001	          0.05936175	          0.14675739	          0.05000009	          0.05000002	          0.05000010	          0.05288713	          0.05000060	          0.07036144	          0.05931382	          0.05931382	          0.05000008	          0.05931390	          0.05931388	          0.05931019	          0.05931437	          0.05931392	          0.30558023	          0.05000070	          0.05000019	          0.15974379	          0.33836667	          0.12489561	          0.21929214	          0.11851301	          0.05000013	          0.08299308	          0.15897785	          0.05000019	          0.05000023	          0.09411391	          0.07064846	          0.07042207	          0.55032682	          0.26839117	          0.13450538	          0.05000313	          0.13602091	          0.14491209	          0.12267596	          0.06171144	          0.06268219	          0.05931581	          0.07036249	          0.05000035	          0.05000037	          0.57909748	          0.34911658	          0.20491573	          0.32419776	          0.57457603	          0.34246168	          0.05931387	          0.08784678	          0.08264157	
          0.01117662	         -2.91023407	         -2.50203997	          6.79605627	          0.01728114	          0.85347242	         -0.00391039	        -18.08745358	         -2.37496116	          7.99540991	         31.56612431	          3.55920598	         -3.13067762	        -11.03986226	        -15.69052891	         -1.69727029	          6.24401579	         12.80303649	         -3.43780765	          3.75234936	          0.06352962	         21.99211535	         -0.08654380	         -2.01791966	          1.31040945	         -2.09415367	          7.12205907	        -13.48895852	         17.37200450	        -11.58521017	        -13.55856973	          5.97532766	         42.93864416	         15.06411791	         86.51662706	         86.51662706	          0.19740315	          0.07702432	          0.05931388	          0.23406828	          0.16418635	          0.08346674	          0.05031223	          0.05000038	          0.05000201	          0.05725232	          0.09037731	          0.21229864	          0.24767849	          0.21512757	          0.05935159	          0.10282213	          0.26232795	          0.05004134	          0.05000342	          0.05931436	          0.05931440	          0.05931446	          0.32126767	          0.54118598	          0.05931395	          0.05931419	          0.05008364	          0.19130107	          0.13934330	          0.13934333	          0.13934326	          0.23915146	          0.32399646	          0.22939575	          0.20579014	          0.23353338	          0.28964109	          0.05000001	          0.05004042	          0.12918024	          0.05000005	          0.05000003	          0.05000009	          0.07289314	          0.06344927	          0.05931293	          0.05000001	          0.05000003	          0.11269036	          0.05000006	          0.05000006	          0.05000005	          0.05000047	          0.05000015	          0.25759604	          0.05000007	          0.06927042	          0.13465985	          0.28523433	          0.36746155	          0.24488839	          0.13135988	          0.05000037	          0.08327050	          0.13653045	          0.06141640	          0.11692379	          0.14026248	          0.05955483	          0.05936404	          0.62075785	          0.22624667	          0.11338453	          0.05931417	          0.20803989	          0.22500260	          0.18683002	          0.05931403	          0.05931427	          0.05000167	          0.05931375	          0.07144368	          0.07036276	          0.55405900	          0.39710304	          0.24782313	          0.27329019	          0.55921640	          0.28868616	          0.05000002	          0.07405251	          0.06966466	
          0.02235324	         -2.89351606	         -2.62794329	          7.00057038	          0.03479285	          0.85229886	         -0.00367466	        -17.64038508	         -2.67944730	          7.76553378	         30.74554338	          3.92212176	         -2.86994798	        -13.57382907	        -16.22018104	         -2.85968927	          5.74620161	         13.83561201	         -3.94892412	          3.44937812	         -0.13614567	         23.04028942	         -0.19146875	         -1.77032540	          1.57427046	         -2.17424346	          6.74892463	        -13.51064902	         17.48894994	        -12.72901464	        -13.55609409	          5.91218228	         44.13746166	         14.97250376	         86.51662706	         86.51662706	          0.29206531	          0.06492947	          0.05000004	          0.36447217	          0.13840481	          0.07036028	          0.06996681	          0.05000008	          0.05000005	          0.05000011	          0.07618689	          0.17896223	          0.20878658	          0.18134689	          0.05003200	          0.08667642	          0.27480745	          0.10754001	          0.05000025	          0.05000098	          0.05000072	          0.05000064	          0.27082021	          0.50036480	          0.05000011	          0.05000041	          0.05000006	          0.16126173	          0.11746272	          0.11746275	          0.11746269	          0.20159833	          0.27312042	          0.19337453	          0.17347564	          0.19686253	          0.24415981	          0.11199051	          0.15790429	          0.17161975	          0.05000051	          0.18260293	          0.05000071	          0.08534425	          0.05348605	          0.05000003	          0.28923358	          0.30527030	          0.35843430	          0.45559524	          0.27034131	          0.20804984	          0.07989072	          0.10252748	          0.21714665	          0.08347011	          0.05839380	          0.11351472	          0.24044501	          0.30976042	          0.20643460	          0.14620582	          0.05000023	          0.07019665	          0.12084076	          0.19108563	          0.17095668	          0.11823787	          0.05020314	          0.05004237	          0.52328241	          0.19072005	          0.24993452	          0.05000029	          0.17537216	          0.18967129	          0.15749279	          0.05000021	          0.05000045	          0.05000011	          0.05000002	          0.06022518	          0.05931401	          0.60361666	          0.43044467	          0.20890851	          0.58357298	          0.64306277	          0.32751180	          0.07239782	          0.09238193	          0.05872547	
          0.03352986	         -2.87430029	         -2.73988733	          7.16308695	          0.05228440	          0.85109057	         -0.00340628	        -17.07149942	         -2.95034122	          7.52194295	         29.82664902	          4.25940721	         -2.61035437	        -16.27323079	        -16.66133985	         -4.02661742	          5.43175206	         14.79166782	         -4.48518292	          2.93852396	         -0.04456951	         23.66224192	         -0.19918196	         -1.53018723	          1.82492095	         -2.24336953	          6.33813864	        -13.54344372	         17.56167470	        -13.79209736	        -13.55484395	          5.93143145	         45.27410832	         14.83689788	         86.51662706	         86.51662706	          0.24620334	          0.05473386	          0.05000007	          0.30724043	          0.11667164	          0.05931192	          0.09513490	          0.05000034	          0.05000049	          0.05000009	          0.06422374	          0.20534525	          0.20753999	          0.18079711	          0.05004157	          0.11745325	          0.23165569	          0.09065381	          0.05000040	          0.05000243	          0.05000147	          0.05000102	          0.22829426	          0.43285926	          0.05000013	          0.05000058	          0.05000014	          0.13593936	          0.09901798	          0.09901800	          0.09901795	          0.16994204	          0.23023327	          0.16300959	          0.14623543	          0.16595004	          0.20582038	          0.18113051	          0.14626346	          0.15331378	          0.13816618	          0.22321829	          0.07451544	          0.11191016	          0.05000001	          0.05000003	          0.42000660	          0.46253032	          0.50656573	          0.38405537	          0.25652558	          0.40961020	          0.07881306	          0.11809161	          0.18304887	          0.07036315	          0.05000026	          0.09568993	          0.20268881	          0.26112009	          0.23665306	          0.17811289	          0.05000021	          0.05918320	          0.12122813	          0.28489835	          0.22383745	          0.17203570	          0.05000009	          0.05000008	          0.44111321	          0.16077202	          0.27955740	          0.05000002	          0.22443829	          0.25985736	          0.20576561	          0.05000001	          0.05000003	          0.05000000	          0.05000001	          0.05076829	          0.05000022	          0.72011316	          0.36285346	          0.17610434	          0.64120156	          0.65027465	          0.46125241	          0.09395473	          0.07787552	          0.05000003	
